<?xml version="1.0" encoding="UTF-8"?>
<!DOCTYPE svg PUBLIC "-//W3C//DTD SVG 1.1//EN"
    "http://www.w3.org/Graphics/SVG/1.1/DTD/svg11.dtd"><svg xmlns="http://www.w3.org/2000/svg" height="4000.0000" stroke-opacity="1" viewBox="0 0 1000 4000" font-size="1" width="1000.0000" xmlns:xlink="http://www.w3.org/1999/xlink" stroke="rgb(0,0,0)" version="1.1"><defs></defs><g stroke-linejoin="miter" stroke-opacity="1.0" fill-opacity="0.0" stroke="rgb(0,0,0)" stroke-width="8.0" fill="rgb(0,0,0)" stroke-linecap="butt" stroke-miterlimit="10.0"><path d="M 1000.0000,4000.0000 l -0.0000,-4000.0000 h -1000.0000 l -0.0000,4000.0000 Z"/></g><a xlink:href="javascript:alert(&quot;Node e&quot;)"><g stroke-linejoin="miter" stroke-opacity="1.0" fill-opacity="0.0" stroke="rgb(0,0,0)" stroke-width="8.0" fill="rgb(0,0,0)" stroke-linecap="butt" stroke-miterlimit="10.0"><path d="M 750.0000,3500.0000 c 0.0000,-138.0712 -111.9288,-250.0000 -250.0000 -250.0000c -138.0712,-0.0000 -250.0000,111.9288 -250.0000 250.0000c -0.0000,138.0712 111.9288,250.0000 250.0000 250.0000c 138.0712,0.0000 250.0000,-111.9288 250.0000 -250.0000Z"/></g><g stroke-linejoin="miter" stroke-opacity="1.0" fill-opacity="1.0" font-size="250.0px" stroke="rgb(0,0,0)" stroke-width="8.0" fill="rgb(0,0,0)" stroke-linecap="butt" stroke-miterlimit="10.0"><text dominant-baseline="middle" transform="matrix(1.0000,0.0000,0.0000,1.0000,500.0000,3500.0000)" stroke="none" text-anchor="middle">e</text></g></a><a xlink:href="javascript:alert(&quot;Node bc&quot;)"><g stroke-linejoin="miter" stroke-opacity="1.0" fill-opacity="0.0" stroke="rgb(0,0,0)" stroke-width="8.0" fill="rgb(0,0,0)" stroke-linecap="butt" stroke-miterlimit="10.0"><path d="M 750.0000,2500.0000 c 0.0000,-138.0712 -111.9288,-250.0000 -250.0000 -250.0000c -138.0712,-0.0000 -250.0000,111.9288 -250.0000 250.0000c -0.0000,138.0712 111.9288,250.0000 250.0000 250.0000c 138.0712,0.0000 250.0000,-111.9288 250.0000 -250.0000Z"/></g><g stroke-linejoin="miter" stroke-opacity="1.0" fill-opacity="1.0" font-size="250.0px" stroke="rgb(0,0,0)" stroke-width="8.0" fill="rgb(0,0,0)" stroke-linecap="butt" stroke-miterlimit="10.0"><text dominant-baseline="middle" transform="matrix(1.0000,0.0000,0.0000,1.0000,500.0000,2500.0000)" stroke="none" text-anchor="middle">bc</text></g></a><a xlink:href="javascript:alert(&quot;Node b&quot;)"><g stroke-linejoin="miter" stroke-opacity="1.0" fill-opacity="0.0" stroke="rgb(0,0,0)" stroke-width="8.0" fill="rgb(0,0,0)" stroke-linecap="butt" stroke-miterlimit="10.0"><path d="M 750.0000,1500.0000 c 0.0000,-138.0712 -111.9288,-250.0000 -250.0000 -250.0000c -138.0712,-0.0000 -250.0000,111.9288 -250.0000 250.0000c -0.0000,138.0712 111.9288,250.0000 250.0000 250.0000c 138.0712,0.0000 250.0000,-111.9288 250.0000 -250.0000Z"/></g><g stroke-linejoin="miter" stroke-opacity="1.0" fill-opacity="1.0" font-size="250.0px" stroke="rgb(0,0,0)" stroke-width="8.0" fill="rgb(0,0,0)" stroke-linecap="butt" stroke-miterlimit="10.0"><text dominant-baseline="middle" transform="matrix(1.0000,0.0000,0.0000,1.0000,500.0000,1500.0000)" stroke="none" text-anchor="middle">b</text></g></a><a xlink:href="javascript:alert(&quot;Node a&quot;)"><g stroke-linejoin="miter" stroke-opacity="1.0" fill-opacity="0.0" stroke="rgb(0,0,0)" stroke-width="8.0" fill="rgb(0,0,0)" stroke-linecap="butt" stroke-miterlimit="10.0"><path d="M 750.0000,500.0000 c 0.0000,-138.0712 -111.9288,-250.0000 -250.0000 -250.0000c -138.0712,-0.0000 -250.0000,111.9288 -250.0000 250.0000c -0.0000,138.0712 111.9288,250.0000 250.0000 250.0000c 138.0712,0.0000 250.0000,-111.9288 250.0000 -250.0000Z"/></g><g stroke-linejoin="miter" stroke-opacity="1.0" fill-opacity="1.0" font-size="250.0px" stroke="rgb(0,0,0)" stroke-width="8.0" fill="rgb(0,0,0)" stroke-linecap="butt" stroke-miterlimit="10.0"><text dominant-baseline="middle" transform="matrix(1.0000,0.0000,0.0000,1.0000,500.0000,500.0000)" stroke="none" text-anchor="middle">a</text></g></a><g stroke-linejoin="miter" stroke-opacity="1.0" fill-opacity="0.0" stroke="rgb(0,0,0)" stroke-width="6.666666666666667" fill="rgb(0,0,0)" stroke-linecap="butt" stroke-miterlimit="10.0"><path d="M 500.0000,750.0000 l 0.0000,500.0000 "/></g><g stroke-linejoin="miter" stroke-opacity="1.0" fill-opacity="1.0" stroke="rgb(0,0,0)" stroke-width="0.0" fill="rgb(0,0,0)" stroke-linecap="butt" stroke-miterlimit="10.0"></g><g stroke-linejoin="miter" stroke-opacity="1.0" fill-opacity="1.0" stroke="rgb(0,0,0)" stroke-width="0.0" fill="rgb(0,0,0)" stroke-linecap="butt" stroke-miterlimit="10.0"></g><g stroke-linejoin="miter" stroke-opacity="1.0" fill-opacity="1.0" stroke="rgb(0,0,0)" stroke-width="0.0" fill="rgb(0,0,0)" stroke-linecap="butt" stroke-miterlimit="10.0"></g><g stroke-linejoin="miter" stroke-opacity="1.0" fill-opacity="1.0" stroke="rgb(0,0,0)" stroke-width="0.0" fill="rgb(0,0,0)" stroke-linecap="butt" stroke-miterlimit="10.0"></g><a xlink:href="javascript:alert(&quot;Node e&quot;)"><g stroke-linejoin="miter" stroke-opacity="1.0" fill-opacity="0.0" stroke="rgb(0,0,0)" stroke-width="8.0" fill="rgb(0,0,0)" stroke-linecap="butt" stroke-miterlimit="10.0"><path d="M 750.0000,3500.0000 c 0.0000,-138.0712 -111.9288,-250.0000 -250.0000 -250.0000c -138.0712,-0.0000 -250.0000,111.9288 -250.0000 250.0000c -0.0000,138.0712 111.9288,250.0000 250.0000 250.0000c 138.0712,0.0000 250.0000,-111.9288 250.0000 -250.0000Z"/></g><g stroke-linejoin="miter" stroke-opacity="1.0" fill-opacity="1.0" font-size="250.0px" stroke="rgb(0,0,0)" stroke-width="8.0" fill="rgb(0,0,0)" stroke-linecap="butt" stroke-miterlimit="10.0"><text dominant-baseline="middle" transform="matrix(1.0000,0.0000,0.0000,1.0000,500.0000,3500.0000)" stroke="none" text-anchor="middle">e</text></g></a><a xlink:href="javascript:alert(&quot;Node bc&quot;)"><g stroke-linejoin="miter" stroke-opacity="1.0" fill-opacity="0.0" stroke="rgb(0,0,0)" stroke-width="8.0" fill="rgb(0,0,0)" stroke-linecap="butt" stroke-miterlimit="10.0"><path d="M 750.0000,2500.0000 c 0.0000,-138.0712 -111.9288,-250.0000 -250.0000 -250.0000c -138.0712,-0.0000 -250.0000,111.9288 -250.0000 250.0000c -0.0000,138.0712 111.9288,250.0000 250.0000 250.0000c 138.0712,0.0000 250.0000,-111.9288 250.0000 -250.0000Z"/></g><g stroke-linejoin="miter" stroke-opacity="1.0" fill-opacity="1.0" font-size="250.0px" stroke="rgb(0,0,0)" stroke-width="8.0" fill="rgb(0,0,0)" stroke-linecap="butt" stroke-miterlimit="10.0"><text dominant-baseline="middle" transform="matrix(1.0000,0.0000,0.0000,1.0000,500.0000,2500.0000)" stroke="none" text-anchor="middle">bc</text></g></a><a xlink:href="javascript:alert(&quot;Node b&quot;)"><g stroke-linejoin="miter" stroke-opacity="1.0" fill-opacity="0.0" stroke="rgb(0,0,0)" stroke-width="8.0" fill="rgb(0,0,0)" stroke-linecap="butt" stroke-miterlimit="10.0"><path d="M 750.0000,1500.0000 c 0.0000,-138.0712 -111.9288,-250.0000 -250.0000 -250.0000c -138.0712,-0.0000 -250.0000,111.9288 -250.0000 250.0000c -0.0000,138.0712 111.9288,250.0000 250.0000 250.0000c 138.0712,0.0000 250.0000,-111.9288 250.0000 -250.0000Z"/></g><g stroke-linejoin="miter" stroke-opacity="1.0" fill-opacity="1.0" font-size="250.0px" stroke="rgb(0,0,0)" stroke-width="8.0" fill="rgb(0,0,0)" stroke-linecap="butt" stroke-miterlimit="10.0"><text dominant-baseline="middle" transform="matrix(1.0000,0.0000,0.0000,1.0000,500.0000,1500.0000)" stroke="none" text-anchor="middle">b</text></g></a><a xlink:href="javascript:alert(&quot;Node a&quot;)"><g stroke-linejoin="miter" stroke-opacity="1.0" fill-opacity="0.0" stroke="rgb(0,0,0)" stroke-width="8.0" fill="rgb(0,0,0)" stroke-linecap="butt" stroke-miterlimit="10.0"><path d="M 750.0000,500.0000 c 0.0000,-138.0712 -111.9288,-250.0000 -250.0000 -250.0000c -138.0712,-0.0000 -250.0000,111.9288 -250.0000 250.0000c -0.0000,138.0712 111.9288,250.0000 250.0000 250.0000c 138.0712,0.0000 250.0000,-111.9288 250.0000 -250.0000Z"/></g><g stroke-linejoin="miter" stroke-opacity="1.0" fill-opacity="1.0" font-size="250.0px" stroke="rgb(0,0,0)" stroke-width="8.0" fill="rgb(0,0,0)" stroke-linecap="butt" stroke-miterlimit="10.0"><text dominant-baseline="middle" transform="matrix(1.0000,0.0000,0.0000,1.0000,500.0000,500.0000)" stroke="none" text-anchor="middle">a</text></g></a><g stroke-linejoin="miter" stroke-opacity="1.0" fill-opacity="0.0" stroke="rgb(0,0,0)" stroke-width="6.666666666666667" fill="rgb(0,0,0)" stroke-linecap="butt" stroke-miterlimit="10.0"><path d="M 500.0000,1750.0000 l 0.0000,500.0000 "/></g><g stroke-linejoin="miter" stroke-opacity="1.0" fill-opacity="1.0" stroke="rgb(0,0,0)" stroke-width="0.0" fill="rgb(0,0,0)" stroke-linecap="butt" stroke-miterlimit="10.0"></g><g stroke-linejoin="miter" stroke-opacity="1.0" fill-opacity="1.0" stroke="rgb(0,0,0)" stroke-width="0.0" fill="rgb(0,0,0)" stroke-linecap="butt" stroke-miterlimit="10.0"></g><g stroke-linejoin="miter" stroke-opacity="1.0" fill-opacity="1.0" stroke="rgb(0,0,0)" stroke-width="0.0" fill="rgb(0,0,0)" stroke-linecap="butt" stroke-miterlimit="10.0"></g><g stroke-linejoin="miter" stroke-opacity="1.0" fill-opacity="1.0" stroke="rgb(0,0,0)" stroke-width="0.0" fill="rgb(0,0,0)" stroke-linecap="butt" stroke-miterlimit="10.0"></g><a xlink:href="javascript:alert(&quot;Node e&quot;)"><g stroke-linejoin="miter" stroke-opacity="1.0" fill-opacity="0.0" stroke="rgb(0,0,0)" stroke-width="8.0" fill="rgb(0,0,0)" stroke-linecap="butt" stroke-miterlimit="10.0"><path d="M 750.0000,3500.0000 c 0.0000,-138.0712 -111.9288,-250.0000 -250.0000 -250.0000c -138.0712,-0.0000 -250.0000,111.9288 -250.0000 250.0000c -0.0000,138.0712 111.9288,250.0000 250.0000 250.0000c 138.0712,0.0000 250.0000,-111.9288 250.0000 -250.0000Z"/></g><g stroke-linejoin="miter" stroke-opacity="1.0" fill-opacity="1.0" font-size="250.0px" stroke="rgb(0,0,0)" stroke-width="8.0" fill="rgb(0,0,0)" stroke-linecap="butt" stroke-miterlimit="10.0"><text dominant-baseline="middle" transform="matrix(1.0000,0.0000,0.0000,1.0000,500.0000,3500.0000)" stroke="none" text-anchor="middle">e</text></g></a><a xlink:href="javascript:alert(&quot;Node bc&quot;)"><g stroke-linejoin="miter" stroke-opacity="1.0" fill-opacity="0.0" stroke="rgb(0,0,0)" stroke-width="8.0" fill="rgb(0,0,0)" stroke-linecap="butt" stroke-miterlimit="10.0"><path d="M 750.0000,2500.0000 c 0.0000,-138.0712 -111.9288,-250.0000 -250.0000 -250.0000c -138.0712,-0.0000 -250.0000,111.9288 -250.0000 250.0000c -0.0000,138.0712 111.9288,250.0000 250.0000 250.0000c 138.0712,0.0000 250.0000,-111.9288 250.0000 -250.0000Z"/></g><g stroke-linejoin="miter" stroke-opacity="1.0" fill-opacity="1.0" font-size="250.0px" stroke="rgb(0,0,0)" stroke-width="8.0" fill="rgb(0,0,0)" stroke-linecap="butt" stroke-miterlimit="10.0"><text dominant-baseline="middle" transform="matrix(1.0000,0.0000,0.0000,1.0000,500.0000,2500.0000)" stroke="none" text-anchor="middle">bc</text></g></a><a xlink:href="javascript:alert(&quot;Node b&quot;)"><g stroke-linejoin="miter" stroke-opacity="1.0" fill-opacity="0.0" stroke="rgb(0,0,0)" stroke-width="8.0" fill="rgb(0,0,0)" stroke-linecap="butt" stroke-miterlimit="10.0"><path d="M 750.0000,1500.0000 c 0.0000,-138.0712 -111.9288,-250.0000 -250.0000 -250.0000c -138.0712,-0.0000 -250.0000,111.9288 -250.0000 250.0000c -0.0000,138.0712 111.9288,250.0000 250.0000 250.0000c 138.0712,0.0000 250.0000,-111.9288 250.0000 -250.0000Z"/></g><g stroke-linejoin="miter" stroke-opacity="1.0" fill-opacity="1.0" font-size="250.0px" stroke="rgb(0,0,0)" stroke-width="8.0" fill="rgb(0,0,0)" stroke-linecap="butt" stroke-miterlimit="10.0"><text dominant-baseline="middle" transform="matrix(1.0000,0.0000,0.0000,1.0000,500.0000,1500.0000)" stroke="none" text-anchor="middle">b</text></g></a><a xlink:href="javascript:alert(&quot;Node a&quot;)"><g stroke-linejoin="miter" stroke-opacity="1.0" fill-opacity="0.0" stroke="rgb(0,0,0)" stroke-width="8.0" fill="rgb(0,0,0)" stroke-linecap="butt" stroke-miterlimit="10.0"><path d="M 750.0000,500.0000 c 0.0000,-138.0712 -111.9288,-250.0000 -250.0000 -250.0000c -138.0712,-0.0000 -250.0000,111.9288 -250.0000 250.0000c -0.0000,138.0712 111.9288,250.0000 250.0000 250.0000c 138.0712,0.0000 250.0000,-111.9288 250.0000 -250.0000Z"/></g><g stroke-linejoin="miter" stroke-opacity="1.0" fill-opacity="1.0" font-size="250.0px" stroke="rgb(0,0,0)" stroke-width="8.0" fill="rgb(0,0,0)" stroke-linecap="butt" stroke-miterlimit="10.0"><text dominant-baseline="middle" transform="matrix(1.0000,0.0000,0.0000,1.0000,500.0000,500.0000)" stroke="none" text-anchor="middle">a</text></g></a><g stroke-linejoin="miter" stroke-opacity="1.0" fill-opacity="0.0" stroke="rgb(0,0,0)" stroke-width="6.666666666666667" fill="rgb(0,0,0)" stroke-linecap="butt" stroke-miterlimit="10.0"><path d="M 500.0000,2750.0000 l 0.0000,500.0000 "/></g><g stroke-linejoin="miter" stroke-opacity="1.0" fill-opacity="1.0" stroke="rgb(0,0,0)" stroke-width="0.0" fill="rgb(0,0,0)" stroke-linecap="butt" stroke-miterlimit="10.0"></g><g stroke-linejoin="miter" stroke-opacity="1.0" fill-opacity="1.0" stroke="rgb(0,0,0)" stroke-width="0.0" fill="rgb(0,0,0)" stroke-linecap="butt" stroke-miterlimit="10.0"></g><g stroke-linejoin="miter" stroke-opacity="1.0" fill-opacity="1.0" stroke="rgb(0,0,0)" stroke-width="0.0" fill="rgb(0,0,0)" stroke-linecap="butt" stroke-miterlimit="10.0"></g><g stroke-linejoin="miter" stroke-opacity="1.0" fill-opacity="1.0" stroke="rgb(0,0,0)" stroke-width="0.0" fill="rgb(0,0,0)" stroke-linecap="butt" stroke-miterlimit="10.0"></g></svg>