<?xml version="1.0" encoding="UTF-8"?>
<!DOCTYPE svg PUBLIC "-//W3C//DTD SVG 1.1//EN"
    "http://www.w3.org/Graphics/SVG/1.1/DTD/svg11.dtd"><svg xmlns="http://www.w3.org/2000/svg" height="1777.7778" stroke-opacity="1" viewBox="0 0 1000 1778" font-size="1" width="1000.0000" xmlns:xlink="http://www.w3.org/1999/xlink" stroke="rgb(0,0,0)" version="1.1"><defs></defs><g stroke-linejoin="miter" stroke-opacity="1.0" fill-opacity="0.0" stroke="rgb(0,0,0)" stroke-width="5.333333333333334" fill="rgb(0,0,0)" stroke-linecap="butt" stroke-miterlimit="10.0"><path d="M 1000.0000,1777.7778 l -0.0000,-1777.7778 h -1000.0000 l -0.0000,1777.7778 Z"/></g><a xlink:href="javascript:alert(&quot;Node e&quot;)"><g stroke-linejoin="miter" stroke-opacity="1.0" fill-opacity="0.0" stroke="rgb(0,0,0)" stroke-width="5.333333333333334" fill="rgb(0,0,0)" stroke-linecap="butt" stroke-miterlimit="10.0"><path d="M 611.1111,1555.5556 c 0.0000,-61.3650 -49.7461,-111.1111 -111.1111 -111.1111c -61.3650,-0.0000 -111.1111,49.7461 -111.1111 111.1111c -0.0000,61.3650 49.7461,111.1111 111.1111 111.1111c 61.3650,0.0000 111.1111,-49.7461 111.1111 -111.1111Z"/></g><g stroke-linejoin="miter" stroke-opacity="1.0" fill-opacity="1.0" font-size="111.11111111111114px" stroke="rgb(0,0,0)" stroke-width="5.333333333333334" fill="rgb(0,0,0)" stroke-linecap="butt" stroke-miterlimit="10.0"><text dominant-baseline="middle" transform="matrix(1.0000,0.0000,0.0000,1.0000,500.0000,1555.5556)" stroke="none" text-anchor="middle">e</text></g></a><a xlink:href="javascript:alert(&quot;Node d&quot;)"><g stroke-linejoin="miter" stroke-opacity="1.0" fill-opacity="0.0" stroke="rgb(0,0,0)" stroke-width="5.333333333333334" fill="rgb(0,0,0)" stroke-linecap="butt" stroke-miterlimit="10.0"><path d="M 888.8889,1111.1111 c 0.0000,-61.3650 -49.7461,-111.1111 -111.1111 -111.1111c -61.3650,-0.0000 -111.1111,49.7461 -111.1111 111.1111c -0.0000,61.3650 49.7461,111.1111 111.1111 111.1111c 61.3650,0.0000 111.1111,-49.7461 111.1111 -111.1111Z"/></g><g stroke-linejoin="miter" stroke-opacity="1.0" fill-opacity="1.0" font-size="111.11111111111114px" stroke="rgb(0,0,0)" stroke-width="5.333333333333334" fill="rgb(0,0,0)" stroke-linecap="butt" stroke-miterlimit="10.0"><text dominant-baseline="middle" transform="matrix(1.0000,0.0000,0.0000,1.0000,777.7778,1111.1111)" stroke="none" text-anchor="middle">d</text></g></a><a xlink:href="javascript:alert(&quot;Node c&quot;)"><g stroke-linejoin="miter" stroke-opacity="1.0" fill-opacity="0.0" stroke="rgb(0,0,0)" stroke-width="5.333333333333334" fill="rgb(0,0,0)" stroke-linecap="butt" stroke-miterlimit="10.0"><path d="M 333.3333,1111.1111 c 0.0000,-61.3650 -49.7461,-111.1111 -111.1111 -111.1111c -61.3650,-0.0000 -111.1111,49.7461 -111.1111 111.1111c -0.0000,61.3650 49.7461,111.1111 111.1111 111.1111c 61.3650,0.0000 111.1111,-49.7461 111.1111 -111.1111Z"/></g><g stroke-linejoin="miter" stroke-opacity="1.0" fill-opacity="1.0" font-size="111.11111111111114px" stroke="rgb(0,0,0)" stroke-width="5.333333333333334" fill="rgb(0,0,0)" stroke-linecap="butt" stroke-miterlimit="10.0"><text dominant-baseline="middle" transform="matrix(1.0000,0.0000,0.0000,1.0000,222.2222,1111.1111)" stroke="none" text-anchor="middle">c</text></g></a><a xlink:href="javascript:alert(&quot;Node b&quot;)"><g stroke-linejoin="miter" stroke-opacity="1.0" fill-opacity="0.0" stroke="rgb(0,0,0)" stroke-width="5.333333333333334" fill="rgb(0,0,0)" stroke-linecap="butt" stroke-miterlimit="10.0"><path d="M 611.1111,666.6667 c 0.0000,-61.3650 -49.7461,-111.1111 -111.1111 -111.1111c -61.3650,-0.0000 -111.1111,49.7461 -111.1111 111.1111c -0.0000,61.3650 49.7461,111.1111 111.1111 111.1111c 61.3650,0.0000 111.1111,-49.7461 111.1111 -111.1111Z"/></g><g stroke-linejoin="miter" stroke-opacity="1.0" fill-opacity="1.0" font-size="111.11111111111114px" stroke="rgb(0,0,0)" stroke-width="5.333333333333334" fill="rgb(0,0,0)" stroke-linecap="butt" stroke-miterlimit="10.0"><text dominant-baseline="middle" transform="matrix(1.0000,0.0000,0.0000,1.0000,500.0000,666.6667)" stroke="none" text-anchor="middle">b</text></g></a><a xlink:href="javascript:alert(&quot;Node a&quot;)"><g stroke-linejoin="miter" stroke-opacity="1.0" fill-opacity="0.0" stroke="rgb(0,0,0)" stroke-width="5.333333333333334" fill="rgb(0,0,0)" stroke-linecap="butt" stroke-miterlimit="10.0"><path d="M 611.1111,222.2222 c 0.0000,-61.3650 -49.7461,-111.1111 -111.1111 -111.1111c -61.3650,-0.0000 -111.1111,49.7461 -111.1111 111.1111c -0.0000,61.3650 49.7461,111.1111 111.1111 111.1111c 61.3650,0.0000 111.1111,-49.7461 111.1111 -111.1111Z"/></g><g stroke-linejoin="miter" stroke-opacity="1.0" fill-opacity="1.0" font-size="111.11111111111114px" stroke="rgb(0,0,0)" stroke-width="5.333333333333334" fill="rgb(0,0,0)" stroke-linecap="butt" stroke-miterlimit="10.0"><text dominant-baseline="middle" transform="matrix(1.0000,0.0000,0.0000,1.0000,500.0000,222.2222)" stroke="none" text-anchor="middle">a</text></g></a><g stroke-linejoin="miter" stroke-opacity="1.0" fill-opacity="0.0" stroke="rgb(0,0,0)" stroke-width="2.9629629629629637" fill="rgb(0,0,0)" stroke-linecap="butt" stroke-miterlimit="10.0"><path d="M 500.0000,333.3333 l 0.0000,222.2222 "/></g><g stroke-linejoin="miter" stroke-opacity="1.0" fill-opacity="1.0" stroke="rgb(0,0,0)" stroke-width="0.0" fill="rgb(0,0,0)" stroke-linecap="butt" stroke-miterlimit="10.0"></g><g stroke-linejoin="miter" stroke-opacity="1.0" fill-opacity="1.0" stroke="rgb(0,0,0)" stroke-width="0.0" fill="rgb(0,0,0)" stroke-linecap="butt" stroke-miterlimit="10.0"></g><g stroke-linejoin="miter" stroke-opacity="1.0" fill-opacity="1.0" stroke="rgb(0,0,0)" stroke-width="0.0" fill="rgb(0,0,0)" stroke-linecap="butt" stroke-miterlimit="10.0"></g><g stroke-linejoin="miter" stroke-opacity="1.0" fill-opacity="1.0" stroke="rgb(0,0,0)" stroke-width="0.0" fill="rgb(0,0,0)" stroke-linecap="butt" stroke-miterlimit="10.0"></g><a xlink:href="javascript:alert(&quot;Node e&quot;)"><g stroke-linejoin="miter" stroke-opacity="1.0" fill-opacity="0.0" stroke="rgb(0,0,0)" stroke-width="5.333333333333334" fill="rgb(0,0,0)" stroke-linecap="butt" stroke-miterlimit="10.0"><path d="M 611.1111,1555.5556 c 0.0000,-61.3650 -49.7461,-111.1111 -111.1111 -111.1111c -61.3650,-0.0000 -111.1111,49.7461 -111.1111 111.1111c -0.0000,61.3650 49.7461,111.1111 111.1111 111.1111c 61.3650,0.0000 111.1111,-49.7461 111.1111 -111.1111Z"/></g><g stroke-linejoin="miter" stroke-opacity="1.0" fill-opacity="1.0" font-size="111.11111111111114px" stroke="rgb(0,0,0)" stroke-width="5.333333333333334" fill="rgb(0,0,0)" stroke-linecap="butt" stroke-miterlimit="10.0"><text dominant-baseline="middle" transform="matrix(1.0000,0.0000,0.0000,1.0000,500.0000,1555.5556)" stroke="none" text-anchor="middle">e</text></g></a><a xlink:href="javascript:alert(&quot;Node d&quot;)"><g stroke-linejoin="miter" stroke-opacity="1.0" fill-opacity="0.0" stroke="rgb(0,0,0)" stroke-width="5.333333333333334" fill="rgb(0,0,0)" stroke-linecap="butt" stroke-miterlimit="10.0"><path d="M 888.8889,1111.1111 c 0.0000,-61.3650 -49.7461,-111.1111 -111.1111 -111.1111c -61.3650,-0.0000 -111.1111,49.7461 -111.1111 111.1111c -0.0000,61.3650 49.7461,111.1111 111.1111 111.1111c 61.3650,0.0000 111.1111,-49.7461 111.1111 -111.1111Z"/></g><g stroke-linejoin="miter" stroke-opacity="1.0" fill-opacity="1.0" font-size="111.11111111111114px" stroke="rgb(0,0,0)" stroke-width="5.333333333333334" fill="rgb(0,0,0)" stroke-linecap="butt" stroke-miterlimit="10.0"><text dominant-baseline="middle" transform="matrix(1.0000,0.0000,0.0000,1.0000,777.7778,1111.1111)" stroke="none" text-anchor="middle">d</text></g></a><a xlink:href="javascript:alert(&quot;Node c&quot;)"><g stroke-linejoin="miter" stroke-opacity="1.0" fill-opacity="0.0" stroke="rgb(0,0,0)" stroke-width="5.333333333333334" fill="rgb(0,0,0)" stroke-linecap="butt" stroke-miterlimit="10.0"><path d="M 333.3333,1111.1111 c 0.0000,-61.3650 -49.7461,-111.1111 -111.1111 -111.1111c -61.3650,-0.0000 -111.1111,49.7461 -111.1111 111.1111c -0.0000,61.3650 49.7461,111.1111 111.1111 111.1111c 61.3650,0.0000 111.1111,-49.7461 111.1111 -111.1111Z"/></g><g stroke-linejoin="miter" stroke-opacity="1.0" fill-opacity="1.0" font-size="111.11111111111114px" stroke="rgb(0,0,0)" stroke-width="5.333333333333334" fill="rgb(0,0,0)" stroke-linecap="butt" stroke-miterlimit="10.0"><text dominant-baseline="middle" transform="matrix(1.0000,0.0000,0.0000,1.0000,222.2222,1111.1111)" stroke="none" text-anchor="middle">c</text></g></a><a xlink:href="javascript:alert(&quot;Node b&quot;)"><g stroke-linejoin="miter" stroke-opacity="1.0" fill-opacity="0.0" stroke="rgb(0,0,0)" stroke-width="5.333333333333334" fill="rgb(0,0,0)" stroke-linecap="butt" stroke-miterlimit="10.0"><path d="M 611.1111,666.6667 c 0.0000,-61.3650 -49.7461,-111.1111 -111.1111 -111.1111c -61.3650,-0.0000 -111.1111,49.7461 -111.1111 111.1111c -0.0000,61.3650 49.7461,111.1111 111.1111 111.1111c 61.3650,0.0000 111.1111,-49.7461 111.1111 -111.1111Z"/></g><g stroke-linejoin="miter" stroke-opacity="1.0" fill-opacity="1.0" font-size="111.11111111111114px" stroke="rgb(0,0,0)" stroke-width="5.333333333333334" fill="rgb(0,0,0)" stroke-linecap="butt" stroke-miterlimit="10.0"><text dominant-baseline="middle" transform="matrix(1.0000,0.0000,0.0000,1.0000,500.0000,666.6667)" stroke="none" text-anchor="middle">b</text></g></a><a xlink:href="javascript:alert(&quot;Node a&quot;)"><g stroke-linejoin="miter" stroke-opacity="1.0" fill-opacity="0.0" stroke="rgb(0,0,0)" stroke-width="5.333333333333334" fill="rgb(0,0,0)" stroke-linecap="butt" stroke-miterlimit="10.0"><path d="M 611.1111,222.2222 c 0.0000,-61.3650 -49.7461,-111.1111 -111.1111 -111.1111c -61.3650,-0.0000 -111.1111,49.7461 -111.1111 111.1111c -0.0000,61.3650 49.7461,111.1111 111.1111 111.1111c 61.3650,0.0000 111.1111,-49.7461 111.1111 -111.1111Z"/></g><g stroke-linejoin="miter" stroke-opacity="1.0" fill-opacity="1.0" font-size="111.11111111111114px" stroke="rgb(0,0,0)" stroke-width="5.333333333333334" fill="rgb(0,0,0)" stroke-linecap="butt" stroke-miterlimit="10.0"><text dominant-baseline="middle" transform="matrix(1.0000,0.0000,0.0000,1.0000,500.0000,222.2222)" stroke="none" text-anchor="middle">a</text></g></a><g stroke-linejoin="miter" stroke-opacity="1.0" fill-opacity="0.0" stroke="rgb(0,0,0)" stroke-width="2.9629629629629637" fill="rgb(0,0,0)" stroke-linecap="butt" stroke-miterlimit="10.0"><path d="M 441.1034,760.9013 l -159.9845,255.9752 "/></g><g stroke-linejoin="miter" stroke-opacity="1.0" fill-opacity="1.0" stroke="rgb(0,0,0)" stroke-width="0.0" fill="rgb(0,0,0)" stroke-linecap="butt" stroke-miterlimit="10.0"></g><g stroke-linejoin="miter" stroke-opacity="1.0" fill-opacity="1.0" stroke="rgb(0,0,0)" stroke-width="0.0" fill="rgb(0,0,0)" stroke-linecap="butt" stroke-miterlimit="10.0"></g><g stroke-linejoin="miter" stroke-opacity="1.0" fill-opacity="1.0" stroke="rgb(0,0,0)" stroke-width="0.0" fill="rgb(0,0,0)" stroke-linecap="butt" stroke-miterlimit="10.0"></g><g stroke-linejoin="miter" stroke-opacity="1.0" fill-opacity="1.0" stroke="rgb(0,0,0)" stroke-width="0.0" fill="rgb(0,0,0)" stroke-linecap="butt" stroke-miterlimit="10.0"></g><a xlink:href="javascript:alert(&quot;Node e&quot;)"><g stroke-linejoin="miter" stroke-opacity="1.0" fill-opacity="0.0" stroke="rgb(0,0,0)" stroke-width="5.333333333333334" fill="rgb(0,0,0)" stroke-linecap="butt" stroke-miterlimit="10.0"><path d="M 611.1111,1555.5556 c 0.0000,-61.3650 -49.7461,-111.1111 -111.1111 -111.1111c -61.3650,-0.0000 -111.1111,49.7461 -111.1111 111.1111c -0.0000,61.3650 49.7461,111.1111 111.1111 111.1111c 61.3650,0.0000 111.1111,-49.7461 111.1111 -111.1111Z"/></g><g stroke-linejoin="miter" stroke-opacity="1.0" fill-opacity="1.0" font-size="111.11111111111114px" stroke="rgb(0,0,0)" stroke-width="5.333333333333334" fill="rgb(0,0,0)" stroke-linecap="butt" stroke-miterlimit="10.0"><text dominant-baseline="middle" transform="matrix(1.0000,0.0000,0.0000,1.0000,500.0000,1555.5556)" stroke="none" text-anchor="middle">e</text></g></a><a xlink:href="javascript:alert(&quot;Node d&quot;)"><g stroke-linejoin="miter" stroke-opacity="1.0" fill-opacity="0.0" stroke="rgb(0,0,0)" stroke-width="5.333333333333334" fill="rgb(0,0,0)" stroke-linecap="butt" stroke-miterlimit="10.0"><path d="M 888.8889,1111.1111 c 0.0000,-61.3650 -49.7461,-111.1111 -111.1111 -111.1111c -61.3650,-0.0000 -111.1111,49.7461 -111.1111 111.1111c -0.0000,61.3650 49.7461,111.1111 111.1111 111.1111c 61.3650,0.0000 111.1111,-49.7461 111.1111 -111.1111Z"/></g><g stroke-linejoin="miter" stroke-opacity="1.0" fill-opacity="1.0" font-size="111.11111111111114px" stroke="rgb(0,0,0)" stroke-width="5.333333333333334" fill="rgb(0,0,0)" stroke-linecap="butt" stroke-miterlimit="10.0"><text dominant-baseline="middle" transform="matrix(1.0000,0.0000,0.0000,1.0000,777.7778,1111.1111)" stroke="none" text-anchor="middle">d</text></g></a><a xlink:href="javascript:alert(&quot;Node c&quot;)"><g stroke-linejoin="miter" stroke-opacity="1.0" fill-opacity="0.0" stroke="rgb(0,0,0)" stroke-width="5.333333333333334" fill="rgb(0,0,0)" stroke-linecap="butt" stroke-miterlimit="10.0"><path d="M 333.3333,1111.1111 c 0.0000,-61.3650 -49.7461,-111.1111 -111.1111 -111.1111c -61.3650,-0.0000 -111.1111,49.7461 -111.1111 111.1111c -0.0000,61.3650 49.7461,111.1111 111.1111 111.1111c 61.3650,0.0000 111.1111,-49.7461 111.1111 -111.1111Z"/></g><g stroke-linejoin="miter" stroke-opacity="1.0" fill-opacity="1.0" font-size="111.11111111111114px" stroke="rgb(0,0,0)" stroke-width="5.333333333333334" fill="rgb(0,0,0)" stroke-linecap="butt" stroke-miterlimit="10.0"><text dominant-baseline="middle" transform="matrix(1.0000,0.0000,0.0000,1.0000,222.2222,1111.1111)" stroke="none" text-anchor="middle">c</text></g></a><a xlink:href="javascript:alert(&quot;Node b&quot;)"><g stroke-linejoin="miter" stroke-opacity="1.0" fill-opacity="0.0" stroke="rgb(0,0,0)" stroke-width="5.333333333333334" fill="rgb(0,0,0)" stroke-linecap="butt" stroke-miterlimit="10.0"><path d="M 611.1111,666.6667 c 0.0000,-61.3650 -49.7461,-111.1111 -111.1111 -111.1111c -61.3650,-0.0000 -111.1111,49.7461 -111.1111 111.1111c -0.0000,61.3650 49.7461,111.1111 111.1111 111.1111c 61.3650,0.0000 111.1111,-49.7461 111.1111 -111.1111Z"/></g><g stroke-linejoin="miter" stroke-opacity="1.0" fill-opacity="1.0" font-size="111.11111111111114px" stroke="rgb(0,0,0)" stroke-width="5.333333333333334" fill="rgb(0,0,0)" stroke-linecap="butt" stroke-miterlimit="10.0"><text dominant-baseline="middle" transform="matrix(1.0000,0.0000,0.0000,1.0000,500.0000,666.6667)" stroke="none" text-anchor="middle">b</text></g></a><a xlink:href="javascript:alert(&quot;Node a&quot;)"><g stroke-linejoin="miter" stroke-opacity="1.0" fill-opacity="0.0" stroke="rgb(0,0,0)" stroke-width="5.333333333333334" fill="rgb(0,0,0)" stroke-linecap="butt" stroke-miterlimit="10.0"><path d="M 611.1111,222.2222 c 0.0000,-61.3650 -49.7461,-111.1111 -111.1111 -111.1111c -61.3650,-0.0000 -111.1111,49.7461 -111.1111 111.1111c -0.0000,61.3650 49.7461,111.1111 111.1111 111.1111c 61.3650,0.0000 111.1111,-49.7461 111.1111 -111.1111Z"/></g><g stroke-linejoin="miter" stroke-opacity="1.0" fill-opacity="1.0" font-size="111.11111111111114px" stroke="rgb(0,0,0)" stroke-width="5.333333333333334" fill="rgb(0,0,0)" stroke-linecap="butt" stroke-miterlimit="10.0"><text dominant-baseline="middle" transform="matrix(1.0000,0.0000,0.0000,1.0000,500.0000,222.2222)" stroke="none" text-anchor="middle">a</text></g></a><g stroke-linejoin="miter" stroke-opacity="1.0" fill-opacity="0.0" stroke="rgb(0,0,0)" stroke-width="2.9629629629629637" fill="rgb(0,0,0)" stroke-linecap="butt" stroke-miterlimit="10.0"><path d="M 558.8966,760.9013 l 159.9845,255.9752 "/></g><g stroke-linejoin="miter" stroke-opacity="1.0" fill-opacity="1.0" stroke="rgb(0,0,0)" stroke-width="0.0" fill="rgb(0,0,0)" stroke-linecap="butt" stroke-miterlimit="10.0"></g><g stroke-linejoin="miter" stroke-opacity="1.0" fill-opacity="1.0" stroke="rgb(0,0,0)" stroke-width="0.0" fill="rgb(0,0,0)" stroke-linecap="butt" stroke-miterlimit="10.0"></g><g stroke-linejoin="miter" stroke-opacity="1.0" fill-opacity="1.0" stroke="rgb(0,0,0)" stroke-width="0.0" fill="rgb(0,0,0)" stroke-linecap="butt" stroke-miterlimit="10.0"></g><g stroke-linejoin="miter" stroke-opacity="1.0" fill-opacity="1.0" stroke="rgb(0,0,0)" stroke-width="0.0" fill="rgb(0,0,0)" stroke-linecap="butt" stroke-miterlimit="10.0"></g><a xlink:href="javascript:alert(&quot;Node e&quot;)"><g stroke-linejoin="miter" stroke-opacity="1.0" fill-opacity="0.0" stroke="rgb(0,0,0)" stroke-width="5.333333333333334" fill="rgb(0,0,0)" stroke-linecap="butt" stroke-miterlimit="10.0"><path d="M 611.1111,1555.5556 c 0.0000,-61.3650 -49.7461,-111.1111 -111.1111 -111.1111c -61.3650,-0.0000 -111.1111,49.7461 -111.1111 111.1111c -0.0000,61.3650 49.7461,111.1111 111.1111 111.1111c 61.3650,0.0000 111.1111,-49.7461 111.1111 -111.1111Z"/></g><g stroke-linejoin="miter" stroke-opacity="1.0" fill-opacity="1.0" font-size="111.11111111111114px" stroke="rgb(0,0,0)" stroke-width="5.333333333333334" fill="rgb(0,0,0)" stroke-linecap="butt" stroke-miterlimit="10.0"><text dominant-baseline="middle" transform="matrix(1.0000,0.0000,0.0000,1.0000,500.0000,1555.5556)" stroke="none" text-anchor="middle">e</text></g></a><a xlink:href="javascript:alert(&quot;Node d&quot;)"><g stroke-linejoin="miter" stroke-opacity="1.0" fill-opacity="0.0" stroke="rgb(0,0,0)" stroke-width="5.333333333333334" fill="rgb(0,0,0)" stroke-linecap="butt" stroke-miterlimit="10.0"><path d="M 888.8889,1111.1111 c 0.0000,-61.3650 -49.7461,-111.1111 -111.1111 -111.1111c -61.3650,-0.0000 -111.1111,49.7461 -111.1111 111.1111c -0.0000,61.3650 49.7461,111.1111 111.1111 111.1111c 61.3650,0.0000 111.1111,-49.7461 111.1111 -111.1111Z"/></g><g stroke-linejoin="miter" stroke-opacity="1.0" fill-opacity="1.0" font-size="111.11111111111114px" stroke="rgb(0,0,0)" stroke-width="5.333333333333334" fill="rgb(0,0,0)" stroke-linecap="butt" stroke-miterlimit="10.0"><text dominant-baseline="middle" transform="matrix(1.0000,0.0000,0.0000,1.0000,777.7778,1111.1111)" stroke="none" text-anchor="middle">d</text></g></a><a xlink:href="javascript:alert(&quot;Node c&quot;)"><g stroke-linejoin="miter" stroke-opacity="1.0" fill-opacity="0.0" stroke="rgb(0,0,0)" stroke-width="5.333333333333334" fill="rgb(0,0,0)" stroke-linecap="butt" stroke-miterlimit="10.0"><path d="M 333.3333,1111.1111 c 0.0000,-61.3650 -49.7461,-111.1111 -111.1111 -111.1111c -61.3650,-0.0000 -111.1111,49.7461 -111.1111 111.1111c -0.0000,61.3650 49.7461,111.1111 111.1111 111.1111c 61.3650,0.0000 111.1111,-49.7461 111.1111 -111.1111Z"/></g><g stroke-linejoin="miter" stroke-opacity="1.0" fill-opacity="1.0" font-size="111.11111111111114px" stroke="rgb(0,0,0)" stroke-width="5.333333333333334" fill="rgb(0,0,0)" stroke-linecap="butt" stroke-miterlimit="10.0"><text dominant-baseline="middle" transform="matrix(1.0000,0.0000,0.0000,1.0000,222.2222,1111.1111)" stroke="none" text-anchor="middle">c</text></g></a><a xlink:href="javascript:alert(&quot;Node b&quot;)"><g stroke-linejoin="miter" stroke-opacity="1.0" fill-opacity="0.0" stroke="rgb(0,0,0)" stroke-width="5.333333333333334" fill="rgb(0,0,0)" stroke-linecap="butt" stroke-miterlimit="10.0"><path d="M 611.1111,666.6667 c 0.0000,-61.3650 -49.7461,-111.1111 -111.1111 -111.1111c -61.3650,-0.0000 -111.1111,49.7461 -111.1111 111.1111c -0.0000,61.3650 49.7461,111.1111 111.1111 111.1111c 61.3650,0.0000 111.1111,-49.7461 111.1111 -111.1111Z"/></g><g stroke-linejoin="miter" stroke-opacity="1.0" fill-opacity="1.0" font-size="111.11111111111114px" stroke="rgb(0,0,0)" stroke-width="5.333333333333334" fill="rgb(0,0,0)" stroke-linecap="butt" stroke-miterlimit="10.0"><text dominant-baseline="middle" transform="matrix(1.0000,0.0000,0.0000,1.0000,500.0000,666.6667)" stroke="none" text-anchor="middle">b</text></g></a><a xlink:href="javascript:alert(&quot;Node a&quot;)"><g stroke-linejoin="miter" stroke-opacity="1.0" fill-opacity="0.0" stroke="rgb(0,0,0)" stroke-width="5.333333333333334" fill="rgb(0,0,0)" stroke-linecap="butt" stroke-miterlimit="10.0"><path d="M 611.1111,222.2222 c 0.0000,-61.3650 -49.7461,-111.1111 -111.1111 -111.1111c -61.3650,-0.0000 -111.1111,49.7461 -111.1111 111.1111c -0.0000,61.3650 49.7461,111.1111 111.1111 111.1111c 61.3650,0.0000 111.1111,-49.7461 111.1111 -111.1111Z"/></g><g stroke-linejoin="miter" stroke-opacity="1.0" fill-opacity="1.0" font-size="111.11111111111114px" stroke="rgb(0,0,0)" stroke-width="5.333333333333334" fill="rgb(0,0,0)" stroke-linecap="butt" stroke-miterlimit="10.0"><text dominant-baseline="middle" transform="matrix(1.0000,0.0000,0.0000,1.0000,500.0000,222.2222)" stroke="none" text-anchor="middle">a</text></g></a><g stroke-linejoin="miter" stroke-opacity="1.0" fill-opacity="0.0" stroke="rgb(0,0,0)" stroke-width="2.9629629629629637" fill="rgb(0,0,0)" stroke-linecap="butt" stroke-miterlimit="10.0"><path d="M 281.1188,1205.3457 l 159.9845,255.9752 "/></g><g stroke-linejoin="miter" stroke-opacity="1.0" fill-opacity="1.0" stroke="rgb(0,0,0)" stroke-width="0.0" fill="rgb(0,0,0)" stroke-linecap="butt" stroke-miterlimit="10.0"></g><g stroke-linejoin="miter" stroke-opacity="1.0" fill-opacity="1.0" stroke="rgb(0,0,0)" stroke-width="0.0" fill="rgb(0,0,0)" stroke-linecap="butt" stroke-miterlimit="10.0"></g><g stroke-linejoin="miter" stroke-opacity="1.0" fill-opacity="1.0" stroke="rgb(0,0,0)" stroke-width="0.0" fill="rgb(0,0,0)" stroke-linecap="butt" stroke-miterlimit="10.0"></g><g stroke-linejoin="miter" stroke-opacity="1.0" fill-opacity="1.0" stroke="rgb(0,0,0)" stroke-width="0.0" fill="rgb(0,0,0)" stroke-linecap="butt" stroke-miterlimit="10.0"></g><a xlink:href="javascript:alert(&quot;Node e&quot;)"><g stroke-linejoin="miter" stroke-opacity="1.0" fill-opacity="0.0" stroke="rgb(0,0,0)" stroke-width="5.333333333333334" fill="rgb(0,0,0)" stroke-linecap="butt" stroke-miterlimit="10.0"><path d="M 611.1111,1555.5556 c 0.0000,-61.3650 -49.7461,-111.1111 -111.1111 -111.1111c -61.3650,-0.0000 -111.1111,49.7461 -111.1111 111.1111c -0.0000,61.3650 49.7461,111.1111 111.1111 111.1111c 61.3650,0.0000 111.1111,-49.7461 111.1111 -111.1111Z"/></g><g stroke-linejoin="miter" stroke-opacity="1.0" fill-opacity="1.0" font-size="111.11111111111114px" stroke="rgb(0,0,0)" stroke-width="5.333333333333334" fill="rgb(0,0,0)" stroke-linecap="butt" stroke-miterlimit="10.0"><text dominant-baseline="middle" transform="matrix(1.0000,0.0000,0.0000,1.0000,500.0000,1555.5556)" stroke="none" text-anchor="middle">e</text></g></a><a xlink:href="javascript:alert(&quot;Node d&quot;)"><g stroke-linejoin="miter" stroke-opacity="1.0" fill-opacity="0.0" stroke="rgb(0,0,0)" stroke-width="5.333333333333334" fill="rgb(0,0,0)" stroke-linecap="butt" stroke-miterlimit="10.0"><path d="M 888.8889,1111.1111 c 0.0000,-61.3650 -49.7461,-111.1111 -111.1111 -111.1111c -61.3650,-0.0000 -111.1111,49.7461 -111.1111 111.1111c -0.0000,61.3650 49.7461,111.1111 111.1111 111.1111c 61.3650,0.0000 111.1111,-49.7461 111.1111 -111.1111Z"/></g><g stroke-linejoin="miter" stroke-opacity="1.0" fill-opacity="1.0" font-size="111.11111111111114px" stroke="rgb(0,0,0)" stroke-width="5.333333333333334" fill="rgb(0,0,0)" stroke-linecap="butt" stroke-miterlimit="10.0"><text dominant-baseline="middle" transform="matrix(1.0000,0.0000,0.0000,1.0000,777.7778,1111.1111)" stroke="none" text-anchor="middle">d</text></g></a><a xlink:href="javascript:alert(&quot;Node c&quot;)"><g stroke-linejoin="miter" stroke-opacity="1.0" fill-opacity="0.0" stroke="rgb(0,0,0)" stroke-width="5.333333333333334" fill="rgb(0,0,0)" stroke-linecap="butt" stroke-miterlimit="10.0"><path d="M 333.3333,1111.1111 c 0.0000,-61.3650 -49.7461,-111.1111 -111.1111 -111.1111c -61.3650,-0.0000 -111.1111,49.7461 -111.1111 111.1111c -0.0000,61.3650 49.7461,111.1111 111.1111 111.1111c 61.3650,0.0000 111.1111,-49.7461 111.1111 -111.1111Z"/></g><g stroke-linejoin="miter" stroke-opacity="1.0" fill-opacity="1.0" font-size="111.11111111111114px" stroke="rgb(0,0,0)" stroke-width="5.333333333333334" fill="rgb(0,0,0)" stroke-linecap="butt" stroke-miterlimit="10.0"><text dominant-baseline="middle" transform="matrix(1.0000,0.0000,0.0000,1.0000,222.2222,1111.1111)" stroke="none" text-anchor="middle">c</text></g></a><a xlink:href="javascript:alert(&quot;Node b&quot;)"><g stroke-linejoin="miter" stroke-opacity="1.0" fill-opacity="0.0" stroke="rgb(0,0,0)" stroke-width="5.333333333333334" fill="rgb(0,0,0)" stroke-linecap="butt" stroke-miterlimit="10.0"><path d="M 611.1111,666.6667 c 0.0000,-61.3650 -49.7461,-111.1111 -111.1111 -111.1111c -61.3650,-0.0000 -111.1111,49.7461 -111.1111 111.1111c -0.0000,61.3650 49.7461,111.1111 111.1111 111.1111c 61.3650,0.0000 111.1111,-49.7461 111.1111 -111.1111Z"/></g><g stroke-linejoin="miter" stroke-opacity="1.0" fill-opacity="1.0" font-size="111.11111111111114px" stroke="rgb(0,0,0)" stroke-width="5.333333333333334" fill="rgb(0,0,0)" stroke-linecap="butt" stroke-miterlimit="10.0"><text dominant-baseline="middle" transform="matrix(1.0000,0.0000,0.0000,1.0000,500.0000,666.6667)" stroke="none" text-anchor="middle">b</text></g></a><a xlink:href="javascript:alert(&quot;Node a&quot;)"><g stroke-linejoin="miter" stroke-opacity="1.0" fill-opacity="0.0" stroke="rgb(0,0,0)" stroke-width="5.333333333333334" fill="rgb(0,0,0)" stroke-linecap="butt" stroke-miterlimit="10.0"><path d="M 611.1111,222.2222 c 0.0000,-61.3650 -49.7461,-111.1111 -111.1111 -111.1111c -61.3650,-0.0000 -111.1111,49.7461 -111.1111 111.1111c -0.0000,61.3650 49.7461,111.1111 111.1111 111.1111c 61.3650,0.0000 111.1111,-49.7461 111.1111 -111.1111Z"/></g><g stroke-linejoin="miter" stroke-opacity="1.0" fill-opacity="1.0" font-size="111.11111111111114px" stroke="rgb(0,0,0)" stroke-width="5.333333333333334" fill="rgb(0,0,0)" stroke-linecap="butt" stroke-miterlimit="10.0"><text dominant-baseline="middle" transform="matrix(1.0000,0.0000,0.0000,1.0000,500.0000,222.2222)" stroke="none" text-anchor="middle">a</text></g></a><g stroke-linejoin="miter" stroke-opacity="1.0" fill-opacity="0.0" stroke="rgb(0,0,0)" stroke-width="2.9629629629629637" fill="rgb(0,0,0)" stroke-linecap="butt" stroke-miterlimit="10.0"><path d="M 718.8812,1205.3457 l -159.9845,255.9752 "/></g><g stroke-linejoin="miter" stroke-opacity="1.0" fill-opacity="1.0" stroke="rgb(0,0,0)" stroke-width="0.0" fill="rgb(0,0,0)" stroke-linecap="butt" stroke-miterlimit="10.0"></g><g stroke-linejoin="miter" stroke-opacity="1.0" fill-opacity="1.0" stroke="rgb(0,0,0)" stroke-width="0.0" fill="rgb(0,0,0)" stroke-linecap="butt" stroke-miterlimit="10.0"></g><g stroke-linejoin="miter" stroke-opacity="1.0" fill-opacity="1.0" stroke="rgb(0,0,0)" stroke-width="0.0" fill="rgb(0,0,0)" stroke-linecap="butt" stroke-miterlimit="10.0"></g><g stroke-linejoin="miter" stroke-opacity="1.0" fill-opacity="1.0" stroke="rgb(0,0,0)" stroke-width="0.0" fill="rgb(0,0,0)" stroke-linecap="butt" stroke-miterlimit="10.0"></g></svg>